<?xml version="1.0" standalone="no"?>
<!DOCTYPE svg PUBLIC "-//W3C//DTD SVG 20010904//EN"
 "http://www.w3.org/TR/2001/REC-SVG-20010904/DTD/svg10.dtd">
<svg version="1.0" xmlns="http://www.w3.org/2000/svg"
 width="200.000000pt" height="200.000000pt" viewBox="0 0 200.000000 200.000000"
 preserveAspectRatio="xMidYMid meet">
<metadata>
Created by potrace 1.11, written by Peter Selinger 2001-2013
</metadata>
<g transform="translate(0.000000,200.000000) scale(0.100000,-0.100000)"
fill="#000000" stroke="none">
<path d="M1210 1984 c-47 -11 -261 -57 -325 -70 -79 -15 -451 -97 -453 -99 -9
-8 -52 -171 -48 -182 3 -8 16 -9 45 -2 23 5 58 12 79 14 20 3 61 11 91 16 30
6 64 12 75 14 20 3 481 81 521 89 95 18 97 17 225 -33 69 -27 126 -45 128 -41
3 8 -54 211 -60 215 -25 16 -188 88 -203 90 -11 1 -45 -4 -75 -11z"/>
<path d="M1017 1644 c-2 -2 -42 -9 -117 -19 -25 -3 -70 -10 -100 -15 -30 -5
-77 -11 -105 -15 -49 -6 -79 -10 -140 -20 -16 -3 -69 -10 -116 -17 l-87 -11
-17 -61 c-9 -34 -21 -71 -26 -84 -13 -34 -11 -39 14 -37 12 1 54 6 92 9 39 4
86 9 105 11 19 3 58 7 85 9 28 3 68 8 90 10 22 3 69 8 105 11 36 3 76 8 90 10
155 24 169 23 420 -20 233 -40 235 -40 298 -49 41 -6 43 -5 37 15 -4 12 -15
51 -26 87 -10 36 -22 69 -26 73 -5 3 -64 19 -133 33 -69 15 -177 39 -240 53
-99 22 -195 35 -203 27z"/>
<path d="M738 1325 c-2 -2 -46 -6 -98 -10 -52 -3 -106 -8 -120 -10 -14 -2 -63
-6 -110 -10 -142 -9 -134 -5 -159 -94 -11 -43 -21 -83 -21 -90 0 -8 40 -9 148
-4 81 4 278 7 437 7 251 0 398 -3 823 -19 45 -1 82 1 82 6 0 32 -46 160 -59
163 -9 3 -70 8 -136 11 -66 3 -131 8 -145 10 -14 2 -74 6 -135 10 -60 3 -126
8 -145 10 -75 9 -358 24 -362 20z"/>
<path d="M427 1033 c-2 -1 -51 -3 -110 -4 -62 -2 -111 -7 -116 -13 -4 -6 -17
-46 -29 -88 l-20 -78 71 -1 c234 -5 1556 7 1562 13 5 4 -33 149 -40 156 -2 3
-212 6 -467 9 -255 2 -550 5 -656 6 -106 2 -194 2 -195 0z"/>
<path d="M1068 785 c-2 -2 -55 -6 -118 -10 -63 -4 -133 -8 -156 -10 -22 -2
-94 -6 -160 -10 -65 -4 -135 -8 -154 -10 -19 -2 -87 -7 -150 -11 -63 -4 -131
-8 -150 -9 -19 -2 -42 -3 -51 -4 -26 -2 -31 -47 -12 -107 l17 -55 170 6 c94 4
205 8 246 10 433 20 635 23 865 12 83 -4 207 -10 276 -13 l127 -6 12 51 c7 28
9 67 6 86 -7 33 -9 35 -49 36 -23 1 -55 2 -72 4 -63 5 -212 17 -250 20 -174
15 -391 26 -397 20z"/>
<path d="M1337 504 c-1 -1 -267 -5 -591 -8 -324 -3 -590 -7 -591 -9 -1 -1 9
-38 24 -82 l26 -80 235 -2 c395 -4 1253 -4 1280 -1 21 3 27 13 48 86 13 46 22
85 20 88 -4 3 -447 11 -451 8z"/>
<path d="M220 256 c0 -1 7 -23 15 -51 9 -27 20 -66 25 -86 6 -20 16 -36 22
-36 14 0 198 -13 268 -18 25 -2 88 -6 140 -10 52 -4 113 -8 135 -10 268 -24
430 -24 610 0 42 6 197 18 216 17 12 0 23 23 43 87 14 48 26 90 26 93 0 6 -82
4 -320 -7 -138 -6 -375 -6 -525 0 -38 1 -173 6 -300 10 -126 4 -258 8 -292 9
-35 1 -63 2 -63 2z"/>
</g>
</svg>
